<?xml version="1.0" standalone="no"?>
<!DOCTYPE svg PUBLIC "-//W3C//DTD SVG 20010904//EN"
 "http://www.w3.org/TR/2001/REC-SVG-20010904/DTD/svg10.dtd">
<svg version="1.0" xmlns="http://www.w3.org/2000/svg"
 width="828.000000pt" height="818.000000pt" viewBox="0 0 828.000000 818.000000"
 preserveAspectRatio="xMidYMid meet">

<g transform="translate(0.000000,818.000000) scale(0.100000,-0.100000)"
fill="#000000" stroke="none">
<path d="M0 4090 l0 -4090 4140 0 4140 0 0 4090 0 4090 -4140 0 -4140 0 0
-4090z m5230 1815 c0 -586 0 -1068 0 -1072 0 -5 -483 -8 -1072 -8 l-1073 0 -3
1060 c-1 583 0 1066 3 1073 3 9 228 12 1075 12 l1070 0 0 -1065z m-2619 -1748
c62 -30 91 -34 108 -13 6 7 22 11 36 8 l25 -4 0 -138 c0 -76 -3 -145 -6 -154
-12 -30 -44 -18 -60 22 -64 156 -119 219 -222 252 -81 26 -181 -16 -257 -107
-43 -51 -55 -74 -92 -173 -19 -54 -23 -84 -23 -180 -1 -162 30 -247 125 -347
73 -78 191 -116 241 -78 10 8 26 15 34 15 9 0 33 18 55 40 33 34 39 47 43 93
4 46 1 58 -17 76 -11 11 -32 23 -46 26 -14 3 -36 7 -49 10 -28 6 -43 35 -24
47 7 4 108 7 223 5 198 -2 210 -3 210 -21 0 -21 -16 -32 -57 -41 -41 -8 -59
-43 -59 -116 -1 -79 -8 -93 -58 -108 -22 -6 -43 -16 -46 -21 -11 -17 -97 -50
-163 -61 -83 -15 -269 -6 -314 14 -18 9 -44 19 -58 22 -26 8 -109 70 -123 92
-4 7 -19 25 -33 40 -13 14 -24 33 -24 42 0 10 -5 22 -12 29 -42 42 -62 281
-32 383 56 190 147 295 304 351 70 26 78 27 200 25 103 -2 121 -5 171 -30z
m-1641 -7 c20 -11 17 -40 -4 -40 -7 0 -31 -9 -53 -20 -71 -34 -75 -57 -71
-401 3 -282 4 -296 26 -339 12 -26 42 -60 68 -80 39 -29 57 -35 109 -38 117
-8 260 64 285 143 8 26 14 129 17 296 6 351 -5 400 -96 428 -49 14 -60 38 -25
51 31 12 304 13 323 1 20 -13 -3 -48 -38 -56 -15 -3 -41 -20 -57 -36 l-29 -30
-5 -327 c-5 -307 -6 -330 -26 -373 -42 -90 -144 -139 -310 -147 -215 -10 -346
41 -394 153 -14 34 -18 90 -23 369 l-6 329 -27 29 c-15 15 -42 31 -60 34 -33
6 -52 33 -39 54 8 13 410 13 435 0z m2749 -30 c10 -19 28 -62 40 -95 13 -33
28 -71 35 -85 8 -14 23 -54 36 -90 12 -36 25 -69 29 -75 4 -5 16 -32 25 -60
19 -52 60 -148 76 -177 6 -10 10 -22 10 -28 0 -6 13 -39 29 -73 16 -34 36 -78
44 -97 27 -59 83 -110 123 -110 31 0 41 -20 18 -37 -14 -10 -66 -13 -244 -11
-216 3 -225 4 -225 23 0 14 10 22 38 28 46 11 87 64 79 102 -2 14 -8 28 -13
31 -5 3 -9 15 -9 27 0 13 -6 31 -13 42 -7 11 -19 38 -25 60 -22 76 -25 78
-161 82 l-121 4 -23 -53 c-85 -193 -85 -248 -1 -288 47 -23 51 -29 32 -48 -19
-19 -302 -17 -318 3 -12 15 -6 35 11 35 21 0 71 47 103 95 30 45 94 193 111
255 3 14 13 39 20 55 8 17 24 57 36 90 12 33 27 74 34 90 7 17 22 59 35 95 13
36 27 70 31 75 4 6 12 26 17 45 34 114 48 132 95 128 21 -2 33 -12 46 -38z
m1346 23 c23 -5 62 -20 87 -33 127 -63 145 -280 32 -378 -21 -18 -48 -35 -61
-38 -16 -4 -23 -14 -23 -29 0 -13 4 -26 8 -29 5 -3 21 -38 37 -78 16 -40 32
-77 36 -83 4 -5 26 -47 48 -91 41 -80 87 -138 126 -160 17 -10 18 -13 6 -28
-11 -13 -33 -16 -116 -16 -120 0 -130 5 -164 90 -43 107 -125 261 -160 301
-42 50 -92 74 -121 59 -18 -10 -20 -21 -20 -143 1 -187 16 -214 149 -264 22
-8 23 -10 7 -26 -15 -15 -43 -17 -230 -17 -175 0 -216 3 -226 15 -15 19 -7 31
27 38 16 3 44 19 63 35 l35 30 0 370 0 370 -24 25 c-12 14 -39 29 -59 34 -42
10 -65 39 -42 53 20 13 531 7 585 -7z m1529 8 c25 -10 25 -10 23 -138 l-2
-128 -25 0 c-19 0 -26 7 -33 35 -13 53 -58 112 -107 139 -24 14 -79 30 -124
37 -126 21 -118 49 -117 -384 0 -299 3 -367 15 -397 18 -43 50 -72 91 -83 20
-6 30 -15 30 -28 0 -18 -10 -19 -216 -22 -181 -2 -218 0 -228 12 -15 17 -7 36
15 36 28 0 75 31 94 63 19 30 20 53 20 413 0 309 -3 384 -14 393 -9 8 -28 8
-66 1 -29 -5 -65 -10 -81 -10 -60 0 -147 -87 -169 -170 -8 -28 -16 -39 -35
-42 -41 -8 -45 8 -35 137 7 95 13 122 26 132 22 16 897 19 938 4z m1060 -4
c14 -10 17 -31 19 -122 l2 -110 -25 0 c-20 0 -27 7 -35 35 -6 20 -31 56 -60
85 -43 42 -61 52 -110 63 -69 15 -198 10 -220 -8 -13 -11 -15 -41 -13 -184 l3
-171 47 -3 c40 -3 51 1 82 29 26 22 38 43 42 70 8 47 24 62 61 57 26 -3 28 -6
27 -43 -2 -113 -18 -333 -26 -354 -8 -22 -10 -22 -31 -8 -14 9 -25 30 -30 60
-12 60 -52 107 -108 123 -68 21 -72 11 -67 -172 4 -140 6 -153 29 -183 36 -49
106 -81 178 -81 33 0 62 4 65 9 3 4 23 11 43 14 61 10 129 92 159 192 10 32
37 44 59 25 12 -10 14 -35 9 -134 -5 -105 -9 -123 -26 -139 -19 -16 -51 -17
-427 -15 -398 3 -406 3 -406 23 0 13 8 22 25 25 43 9 89 43 102 74 16 40 22
631 7 696 -13 56 -42 88 -88 96 -49 9 -72 47 -33 57 9 3 177 5 373 6 273 1
359 -2 373 -12z m-6692 -1286 c39 -15 87 -69 94 -106 4 -25 1 -45 -13 -72 -23
-45 -67 -64 -161 -69 -34 -1 -67 -6 -72 -9 -6 -3 -10 -34 -10 -69 0 -67 11
-86 58 -100 24 -8 30 -34 10 -40 -7 -3 -59 -7 -115 -10 -84 -4 -105 -2 -118
10 -18 19 -12 32 21 44 36 14 44 48 44 191 0 130 -8 169 -35 169 -21 0 -47 41
-34 56 12 15 293 19 331 5z m618 -1 c59 -17 81 -41 87 -93 6 -52 -12 -91 -47
-102 -25 -8 -25 -38 -2 -81 9 -17 28 -51 40 -74 13 -23 35 -53 49 -66 34 -32
24 -54 -24 -54 -21 0 -48 -3 -59 -6 -18 -5 -26 3 -47 48 -14 29 -28 60 -31 68
-18 46 -77 110 -101 110 -8 0 -17 -12 -20 -27 -4 -16 -8 -37 -10 -47 -7 -37
22 -84 61 -101 35 -14 37 -17 21 -32 -24 -24 -220 -29 -243 -5 -15 14 -15 17
2 28 63 43 64 47 64 207 l0 148 -34 20 c-44 26 -52 47 -23 59 30 12 274 12
317 0z m735 -11 c111 -41 165 -115 165 -225 0 -124 -71 -202 -212 -234 -97
-22 -219 14 -281 84 -69 76 -81 153 -37 245 23 47 86 111 109 111 9 0 26 6 37
14 43 31 145 33 219 5z m726 11 c9 0 32 -16 52 -35 32 -31 37 -42 37 -81 0
-48 -13 -81 -39 -101 -24 -17 -127 -36 -165 -30 -41 7 -46 -2 -46 -79 0 -56
14 -80 63 -109 11 -6 14 -15 8 -23 -12 -19 -225 -22 -243 -3 -11 11 -10 15 6
25 11 6 30 22 43 35 23 24 23 29 21 175 l-3 151 -30 14 c-51 24 -57 50 -14 62
20 6 100 6 310 -1z m526 -3 c20 -12 3 -46 -27 -52 -40 -9 -50 -46 -50 -192 0
-135 10 -166 56 -177 15 -4 24 -14 24 -26 0 -18 -8 -20 -97 -22 -130 -2 -145
-1 -154 14 -9 14 7 38 26 38 7 0 20 12 30 26 14 22 17 50 17 166 -1 139 -7
168 -38 168 -17 0 -44 28 -44 45 0 8 12 15 28 18 45 6 216 2 229 -6z m624 -7
c9 -14 4 -88 -6 -98 -2 -3 -16 4 -31 14 -57 40 -69 44 -139 42 l-70 -3 0 -65
c0 -63 1 -65 27 -68 20 -2 32 4 49 27 23 31 52 40 64 20 8 -12 -15 -180 -26
-193 -4 -4 -19 10 -33 32 -25 40 -56 59 -76 47 -5 -3 -10 -32 -10 -64 0 -53 2
-59 32 -81 24 -18 43 -23 82 -21 58 2 96 22 128 71 26 38 52 49 61 27 8 -22
-8 -126 -22 -140 -9 -9 -71 -12 -217 -13 -175 -1 -209 2 -226 15 -19 16 -19
17 19 41 l38 25 0 160 0 160 -27 13 c-34 16 -55 50 -36 57 31 10 63 11 231 11
146 -1 179 -4 188 -16z m602 -2 c26 -10 61 -28 76 -39 36 -27 82 -116 88 -172
7 -62 -21 -148 -62 -190 -54 -56 -113 -68 -305 -64 -98 2 -165 8 -172 15 -15
15 -2 42 20 42 33 0 45 51 46 197 1 145 3 140 -57 178 -9 6 -17 17 -19 25 -4
21 47 28 202 27 105 0 146 -5 183 -19z m682 -55 c15 -32 31 -65 36 -73 23 -41
59 -124 59 -136 0 -7 5 -16 10 -19 6 -4 16 -21 24 -39 16 -38 51 -78 85 -95
43 -24 5 -38 -116 -45 -96 -5 -114 -3 -129 11 -15 16 -15 18 2 30 10 7 24 13
31 13 22 0 15 55 -12 84 -19 21 -33 26 -69 26 -67 0 -92 -13 -106 -56 -11 -33
-11 -39 5 -50 10 -7 23 -15 28 -17 6 -2 8 -10 5 -19 -8 -21 -136 -35 -167 -19
-21 12 -29 41 -12 41 23 0 72 56 96 108 15 31 37 80 50 107 48 103 75 164 75
171 0 4 10 18 21 30 30 32 50 19 84 -53z m767 60 c7 -6 24 -13 38 -16 30 -8
85 -58 104 -95 55 -107 28 -264 -53 -317 -53 -35 -129 -45 -299 -42 -158 3
-188 11 -162 42 7 8 19 15 26 15 7 0 21 11 30 25 13 20 16 52 16 158 1 143 -6
171 -46 181 -28 7 -45 44 -25 56 18 12 356 5 371 -7z m808 -3 c11 -17 13 -70
4 -94 -9 -22 -31 -20 -39 4 -9 27 -35 39 -107 51 -50 8 -64 7 -85 -6 -21 -14
-24 -22 -21 -73 3 -56 3 -57 35 -60 27 -3 35 1 45 23 12 27 53 44 69 28 11
-11 -3 -121 -20 -166 -13 -33 -33 -31 -41 4 -3 13 -18 30 -32 38 -22 13 -28
13 -43 1 -22 -19 -15 -92 12 -129 17 -22 29 -26 81 -29 52 -2 67 1 99 22 20
14 42 39 49 56 25 60 79 23 56 -38 -6 -15 -13 -40 -16 -55 -4 -17 -16 -31 -32
-37 -14 -6 -114 -9 -227 -8 -198 3 -202 3 -205 24 -2 16 4 24 26 32 42 14 53
62 47 212 -5 128 -11 145 -52 161 -13 5 -23 17 -23 28 0 25 13 26 238 26 143
0 174 -3 182 -15z m541 -1 c25 -13 27 -104 3 -113 -21 -8 -33 0 -44 29 -12 31
-74 51 -112 36 -23 -9 -28 -17 -28 -46 0 -29 6 -38 38 -58 20 -13 48 -28 62
-32 46 -14 101 -55 111 -83 18 -45 6 -119 -25 -151 -37 -39 -113 -55 -197 -42
-35 6 -73 9 -84 8 -18 -2 -20 5 -23 66 -3 76 6 83 45 37 54 -65 127 -80 171
-37 23 23 25 30 16 64 -8 35 -16 41 -94 80 -104 51 -133 83 -126 136 5 47 28
82 68 107 26 16 45 18 116 14 47 -3 93 -9 103 -15z"/>
<path d="M3176 6864 c-3 -8 -6 -447 -6 -974 0 -795 2 -959 14 -969 10 -8 274
-10 982 -9 l969 3 0 980 0 980 -976 3 c-884 2 -977 1 -983 -14z m888 -260 c9
-3 16 -17 16 -29 0 -20 -9 -26 -52 -39 -67 -19 -92 -38 -125 -89 l-27 -42 2
-460 c2 -432 3 -462 22 -512 31 -82 56 -117 116 -159 56 -39 119 -56 191 -51
189 13 330 98 370 225 16 52 18 98 17 497 -1 421 -2 442 -21 486 -26 57 -60
85 -130 105 -45 13 -53 19 -53 40 0 16 7 25 23 29 12 3 126 4 252 3 l230 -3 0
-30 c0 -25 -5 -31 -30 -35 -65 -12 -119 -46 -145 -91 l-25 -44 -6 -475 c-4
-261 -11 -493 -16 -515 -26 -113 -135 -200 -308 -246 -93 -25 -308 -26 -415
-3 -184 40 -285 130 -318 284 -8 37 -13 206 -15 505 -2 446 -3 450 -25 493
-24 45 -80 80 -147 92 -22 4 -31 11 -33 29 -2 13 2 28 10 32 15 10 618 12 642
3z"/>
<path d="M3587 3864 c-4 -4 -7 -15 -7 -23 0 -9 -16 -52 -35 -96 -36 -83 -42
-111 -25 -117 5 -1 48 -2 95 0 100 4 106 10 77 74 -11 23 -29 70 -40 103 -14
42 -26 61 -39 63 -10 2 -22 0 -26 -4z"/>
<path d="M4810 4097 l-25 -13 -3 -191 -2 -191 22 -6 c42 -11 75 -6 129 18 61
27 87 52 119 114 52 101 -13 234 -129 264 -67 18 -86 19 -111 5z"/>
<path d="M840 2810 l-35 -5 -3 -67 -3 -68 48 0 c78 1 125 55 88 104 -22 28
-57 42 -95 36z"/>
<path d="M1431 2806 c-7 -9 -11 -38 -9 -73 l3 -58 35 -3 c38 -3 96 27 107 54
10 28 -18 62 -65 79 -56 18 -57 18 -71 1z"/>
<path d="M2145 2803 c-25 -6 -95 -72 -95 -90 0 -7 -7 -28 -16 -47 -16 -32 -16
-38 0 -88 20 -61 36 -81 88 -114 45 -29 137 -34 158 -9 7 8 18 15 24 15 6 0
26 21 44 48 28 41 32 56 32 110 0 130 -103 207 -235 175z"/>
<path d="M2885 2787 c-4 -13 -5 -43 -3 -68 3 -44 3 -44 43 -47 30 -2 47 3 67
20 62 52 25 118 -66 118 -29 0 -37 -4 -41 -23z"/>
<path d="M4591 2801 c-10 -7 -13 -43 -12 -162 l1 -154 27 -23 c38 -30 63 -36
112 -22 53 14 113 73 131 127 28 89 -42 208 -135 232 -52 13 -105 14 -124 2z"/>
<path d="M5357 2669 c-11 -22 -16 -46 -13 -54 7 -20 75 -20 82 0 6 16 -26 87
-42 92 -5 1 -17 -16 -27 -38z"/>
<path d="M6055 2804 c-18 -14 -20 -26 -20 -165 1 -148 1 -149 27 -176 33 -32
94 -36 148 -8 49 25 70 49 92 107 18 48 18 52 1 105 -21 68 -73 116 -149 138
-64 18 -74 18 -99 -1z"/>
</g>
</svg>
